<svg width="25" height="24" viewBox="0 0 25 24" fill="none" xmlns="http://www.w3.org/2000/svg">
<path d="M24.0923 6.97453C24.0923 4.86516 22.5407 3.16828 20.6235 3.16828C18.0267 3.04687 15.3782 3 12.6717 3H11.8279C9.12792 3 6.4748 3.04687 3.87792 3.16875C1.96542 3.16875 0.413859 4.875 0.413859 6.98437C0.296672 8.65266 0.246984 10.3214 0.249797 11.9902C0.245109 13.6589 0.298234 15.3292 0.409172 17.0011C0.409172 19.1105 1.96073 20.8214 3.87323 20.8214C6.60136 20.948 9.3998 21.0042 12.2451 20.9995C15.0951 21.0089 17.8857 20.9495 20.617 20.8214C22.5342 20.8214 24.0857 19.1105 24.0857 17.0011C24.1982 15.3277 24.2498 13.6589 24.2451 11.9855C24.2557 10.3167 24.2048 8.64641 24.0923 6.97453ZM9.95292 16.5886V7.37766L16.7498 11.9808L9.95292 16.5886Z" fill="black"/>
</svg>
